<svg width="57" height="53" viewBox="0 0 57 53" fill="none" xmlns="http://www.w3.org/2000/svg">
<rect width="57" height="53" rx="22" fill="#0068FF"/>
<g clip-path="url(#clip0_7110_1026)">
<path d="M26.8383 31.893H32.5027C33.0235 31.8915 33.5226 31.6839 33.8909 31.3156C34.2592 30.9473 34.4668 30.4483 34.4683 29.9274C34.4653 29.4076 34.2571 28.9099 33.8889 28.5429C33.5208 28.1758 33.0226 27.969 32.5027 27.9675H28.9114C28.1055 27.958 27.3056 27.8282 26.538 27.5823C25.1162 27.2765 22.8165 27.2595 21.7629 29.9274H19.4971M34.4399 29.9274L39.5379 26.9253C39.9828 26.6557 40.5165 26.5735 41.0219 26.6967C41.5273 26.8198 41.9632 27.1383 42.2342 27.5823C42.5028 28.0269 42.5851 28.5595 42.4631 29.0644C42.3411 29.5693 42.0248 30.0056 41.5828 30.2786L34.9158 35.2973C33.7272 36.1918 32.2796 36.675 30.792 36.6738H19.4631M32.5481 21.0399L31.1602 22.4334C31.1517 22.4421 31.1416 22.449 31.1304 22.4538C31.1192 22.4585 31.1072 22.4609 31.095 22.4609C31.0829 22.4609 31.071 22.4585 31.0598 22.4538C31.0486 22.449 31.0383 22.4421 31.0299 22.4334L30.1746 21.0342H26.4361C26.1073 21.8896 25.5269 22.6253 24.7715 23.144C24.016 23.6628 23.1212 23.9404 22.2048 23.9401C21.0029 23.9401 19.8502 23.4627 19.0004 22.6128C18.1506 21.763 17.6732 20.6104 17.6732 19.4085C17.6732 18.2067 18.1506 17.054 19.0004 16.2042C19.8502 15.3544 21.0029 14.877 22.2048 14.877C23.1205 14.8762 24.0149 15.153 24.7702 15.6707C25.5256 16.1884 26.1064 16.9228 26.4361 17.7772H34.7685L36.8983 19.5841L34.0661 22.5126L32.5481 21.0682M19.4745 28.9248C19.4745 28.8437 19.4422 28.7659 19.3848 28.7085C19.3275 28.6511 19.2497 28.6189 19.1686 28.6189H16.1834C16.1023 28.6189 16.0244 28.6511 15.9671 28.7085C15.9097 28.7659 15.8775 28.8437 15.8775 28.9248V37.6651C15.8775 37.7462 15.9097 37.824 15.9671 37.8813C16.0244 37.9387 16.1023 37.971 16.1834 37.971H19.1686C19.2497 37.971 19.3275 37.9387 19.3848 37.8813C19.4422 37.824 19.4745 37.7462 19.4745 37.6651V28.9248Z" stroke="#F1FFF3" stroke-width="1.69934" stroke-linecap="round" stroke-linejoin="round"/>
<path d="M20.987 20.3435C21.6627 20.3435 22.2105 19.7957 22.2105 19.12C22.2105 18.4443 21.6627 17.8965 20.987 17.8965C20.3113 17.8965 19.7635 18.4443 19.7635 19.12C19.7635 19.7957 20.3113 20.3435 20.987 20.3435Z" fill="#F1FFF3"/>
</g>
<defs>
<clipPath id="clip0_7110_1026">
<rect width="28.3733" height="24.8216" fill="white" transform="translate(15 14)"/>
</clipPath>
</defs>
</svg>
